<svg id="圖層_1" data-name="圖層 1" xmlns="http://www.w3.org/2000/svg" viewBox="0 0 10 33"><path d="M5.05,28v-.14c0-.08,0-.08.09-.1v-.23H5.06v-.22L5,27.3v-.67l0,0c-.07,0-.07,0-.07-.1s0-.12-.13-.14,0,0,0,0,0-.28,0-.43h.17v-1.4l-.08,0V24l-.09,0v-.23H5v.46h.12s.06,0,.06-.06v-.34s0-.06,0-.07,0,0,0,0v-.37s0-.05,0-.05H5.05c-.07,0-.07,0-.07-.07v-.36s0-.05-.06-.05,0,0,0,.05a.48.48,0,0,0,0,.12s0,.07-.06.07a.4.4,0,0,0-.11,0h0c0-.22,0-.44,0-.67v-.67s0-.07.06-.08,0,0,0,0v-.18l.08,0V21H4.8v-.23H4.71v-.22l-.08,0v-1c0-.1,0-.2,0-.31s0-.07.08-.07h.1v-.22c.07,0,.08,0,.08-.09s0-.07,0-.1a.09.09,0,0,0,0-.05s0,0,0-.06v-.18c-.08,0-.08,0-.08-.1v-1.2c0-.25,0-.5,0-.75,0,0,0-.06,0-.07s0,0,0-.05V15.12s0,0,0,0,0-.06,0-.1v-.09s0-.05,0-.06,0,0,0,0v-.42h.08v-.23l.08,0v-.68l-.08,0v-.46l-.08,0v-.45h.25V10.88c0-.06,0-.07-.08-.08v-.21l-.09,0V10.5c0-.11,0-.22,0-.34s0-.06,0-.06h0c-.06-.06,0-.12,0-.18s0,0,.06,0H4.8V9.64c.07,0,.09,0,.08-.1h0c0-.14,0-.14-.15-.14s-.1,0-.1.1v.1a0,0,0,0,1,0,.05s0,0,0-.05V9.17l.1,0V8.77c0-.08,0-.08.08-.08h.16V8.23l-.07,0V7.53l-.09,0V7.29l-.08,0V7.05s-.08,0-.08,0a.25.25,0,0,1,0-.17c0-.06.1,0,.16,0v.12c0,.09,0,.09.09.11a1.09,1.09,0,0,0,0,.18s0,0,0,0,0,0,0,0V7.14c0-.09,0-.09.09-.11V6.34c-.08,0-.08,0-.08-.11,0-.26,0-.51,0-.76V5.4H4.63V5.17l.08,0V4.92h0s.06,0,.06-.07V4.22H5s0,0,0,.07v.33s0,.06,0,0h.19V4.48s0,0,0,0,0,0,0-.08V4.22l-.1,0V4.05C5.05,4,5.05,4,5,4H4.89V3.51H5V3H4.89V2.1l.08,0V1.89s0,0,0,0h-.1s0,0,0,0v.17H4.71V1.86l-.08,0V1.72c0-.09,0-.09-.09-.1V1.39l-.08,0a.75.75,0,0,1,0-.15V1s0,0,0,0,0,0,0-.06V.69h.18v.46c-.08,0-.08,0-.08.07v.12s0,0,0,0,0,0,0,0V1.15h.17V.92L5,.9V.69l-.08,0V.45L4.8.43V.2h.08V0h.17V-.5h.1V0l.07,0V1.85h.1v.23c.07,0,.08,0,.07.09s0,.21,0,.32,0,0,0,.06a.33.33,0,0,0,0,.06v.12s0,.06,0,0-.06,0-.06.07V3s0,.08,0,.08a.07.07,0,0,0,0,0v.17l.17,0v0c0,.19,0,.38,0,.56s0,.1.07.1v.46l-.07,0v.08c0,.18,0,.35,0,.53s0,.09.07.09V6.8l.09,0c0,.14,0,.28,0,.42l0,0s0,0,0,.06a1,1,0,0,1,0,.17l.09,0v.37c0,.08,0,.08-.08.1v.22c.08,0,.08,0,.08.12,0,.27,0,.54,0,.81,0,.63,0,1.25,0,1.87,0,.31,0,.63,0,.94v0c.06,0,.07,0,.07.09v1.33H5.39c-.06,0-.07,0-.07.07v.07c0,.09,0,.09-.09.11v.68l-.08,0V15s0,.05,0,.05,0,0,0,.09v.76s0,.1-.07.09v2.36c.06,0,.07,0,.07.09v.38l-.07,0v.62c0,.08,0,.08.07.08h0s.06,0,.06.05v2.49c0,.17,0,.34,0,.51l.08,0v.45l.08,0V24H5.39a2.53,2.53,0,0,0,0,.28v.32c0,.09,0,.09.08.11a.09.09,0,0,1,0,.05v1.76c0,.06,0,.05-.09.06v6.12l-.08,0v.46H5.23v.22l-.09,0v.16s0,.07-.06.06h-.2v-.22l-.07,0V33l.07,0v-.23l.08,0V32.5H4.85s0,0,0-.05a.86.86,0,0,0,0-.16l.08,0V32L5,32v-.45h-.1a.71.71,0,0,0,0,.14c0,.05,0,.08-.07.07h-.1V30.62l-.08,0v-.22H4.54v-.7h.08v-.45l.17,0V29H4.71v-.64s0-.06,0-.07,0,0,0-.05V28h.25c0,.07,0,.13,0,.19s0,.05,0,.05.05,0,.05-.05v-.09C5.15,28,5.15,28,5.05,28ZM5,15.29H4.84s0,0,0,0a.86.86,0,0,0,0,.16l0,0s0,0,0,.07v.1c0,.08,0,.08.09.06ZM5.06,8s.08,0,.08,0a.49.49,0,0,0,0-.17s0,0,0,0,0,0,0,0Zm.26,1.66v-.2l0,0s0,0,0,0v.2Zm0,2.71v-.07s0,0-.05,0,0,0,0,0v.14s0,.06,0,.06.06,0,.05-.06ZM5.22,26h0s0-.06,0-.08a0,0,0,0,0-.07,0,.48.48,0,0,0,0,.17l0,0,0,0A.22.22,0,0,0,5.22,26Zm-.17,3.77h0V29.7s0,0,0,0l0,0v.17l0,0s0,0,0,0Z"/><path d="M4.71,23.78H4.64a.2.2,0,0,1,0-.07v-.55c0-.08,0-.08.08-.08h0a.22.22,0,0,0,0,.08c0,.21,0,.42,0,.63Z"/><path d="M4.8,28c-.09,0-.09,0-.09-.09v-.3c0-.07,0-.08.09-.06V28Z"/><path d="M4.71,3.27H4.8V3.5H4.71Z"/><path d="M4.54,18.24v-.07s0-.05,0,0,0,0,0,0a.33.33,0,0,1,0,.14s0,0,0,0,0,0,0,0S4.54,18.26,4.54,18.24Z"/></svg>